<svg width="80" height="80" viewBox="0 0 80 80" fill="none" xmlns="http://www.w3.org/2000/svg">
<path d="M53.2068 24.0244H26.793V1.80347H10.8701V62.7448H26.793V38.8374H53.2068V62.7448H69.1297V1.80347H53.2068V24.0244Z" fill="#F9B577"/>
<path d="M17.6673 78.1966C16.8875 78.1966 16.1641 78.0691 15.4961 77.8139C14.828 77.5587 14.2486 77.1959 13.7591 76.724C13.2696 76.2521 12.8872 75.6987 12.6119 75.0637C12.3366 74.4288 12.2007 73.7309 12.2007 72.9715C12.2007 72.2106 12.3366 71.5127 12.6119 70.8778C12.8872 70.243 13.2707 69.6879 13.7649 69.2175C14.2613 68.7456 14.8407 68.3828 15.5041 68.1277C16.1676 67.8725 16.8932 67.7449 17.6811 67.7449C18.5565 67.7449 19.3478 67.8956 20.0539 68.1999C20.7611 68.5027 21.3531 68.947 21.8357 69.5342L20.3349 70.9209C19.9894 70.5258 19.6046 70.2306 19.1808 70.0323C18.7581 69.8355 18.2962 69.7372 17.7963 69.7372C17.3252 69.7372 16.8932 69.8141 16.4993 69.9677C16.1042 70.1214 15.7633 70.3428 15.4742 70.6318C15.1874 70.9209 14.9628 71.2622 14.805 71.6571C14.6449 72.0508 14.5654 72.4904 14.5654 72.9715C14.5654 73.4527 14.6449 73.8892 14.805 74.2844C14.9628 74.6795 15.1874 75.0207 15.4742 75.3097C15.7633 75.5987 16.1042 75.8201 16.4993 75.9738C16.8932 76.1276 17.3252 76.2043 17.7963 76.2043C18.2962 76.2043 18.7581 76.106 19.1808 75.9077C19.6046 75.7109 19.9894 75.4111 20.3349 75.0053L21.8357 76.3919C21.3531 76.9791 20.7611 77.4265 20.0539 77.734C19.3478 78.0429 18.5507 78.1966 17.6673 78.1966Z" fill="#F9B577"/>
<path d="M24.8359 78.0236V67.9177H27.1718V76.1174H32.233V78.0236H24.8359Z" fill="#F9B577"/>
<path d="M35.2329 67.9177H37.5688V78.0236H35.2329V67.9177Z" fill="#F9B577"/>
<path d="M40.5688 78.0236V67.9177H42.5028L48.4577 75.1936H47.5201V67.9177H49.8284V78.0236H47.9094L41.9407 70.7478H42.8771V78.0236H40.5688Z" fill="#F9B577"/>
<path d="M52.8281 67.9177H55.1641V78.0236H52.8281V67.9177Z" fill="#F9B577"/>
<path d="M63.6307 78.1966C62.8509 78.1966 62.1275 78.0691 61.4594 77.8139C60.7914 77.5587 60.212 77.1959 59.7225 76.724C59.233 76.2521 58.8505 75.6987 58.5753 75.0637C58.3 74.4288 58.1641 73.7309 58.1641 72.9715C58.1641 72.2106 58.3 71.5127 58.5753 70.8778C58.8505 70.243 59.2341 69.6879 59.7283 69.2175C60.2247 68.7456 60.804 68.3828 61.4675 68.1277C62.1309 67.8725 62.8566 67.7449 63.6445 67.7449C64.5199 67.7449 65.3112 67.8956 66.0172 68.1999C66.7245 68.5027 67.3165 68.947 67.7991 69.5342L66.2983 70.9209C65.9527 70.5258 65.568 70.2306 65.1442 70.0323C64.7214 69.8355 64.2596 69.7372 63.7597 69.7372C63.2886 69.7372 62.8566 69.8141 62.4627 69.9677C62.0676 70.1214 61.7267 70.3428 61.4375 70.6318C61.1507 70.9209 60.9261 71.2622 60.7683 71.6571C60.6082 72.0508 60.5288 72.4904 60.5288 72.9715C60.5288 73.4527 60.6082 73.8892 60.7683 74.2844C60.9261 74.6795 61.1507 75.0207 61.4375 75.3097C61.7267 75.5987 62.0676 75.8201 62.4627 75.9738C62.8566 76.1276 63.2886 76.2043 63.7597 76.2043C64.2596 76.2043 64.7214 76.106 65.1442 75.9077C65.568 75.7109 65.9527 75.4111 66.2983 75.0053L67.7991 76.3919C67.3165 76.9791 66.7245 77.4265 66.0172 77.734C65.3112 78.0429 64.5141 78.1966 63.6307 78.1966Z" fill="#F9B577"/>
</svg>
