<svg width="346" height="85" viewBox="0 0 346 85" fill="none" xmlns="http://www.w3.org/2000/svg">
<g clip-path="url(#clip0_2692_147)">
<path d="M40.987 22.3254H18.055V3.05212H4.23096V55.9094H18.055V35.1734H40.987V55.9094H54.811V3.05212H40.987V22.3254Z" fill="black"/>
<path d="M78.8594 34.4419H107.078V22.4072H78.8594V15.0872H108.541V3.05261H65.0354V55.9099H108.703V43.8752H78.8594V34.4419Z" fill="black"/>
<mask id="mask0_2692_147" style="mask-type:luminance" maskUnits="userSpaceOnUse" x="-12" y="-16" width="375" height="117">
<path d="M-12 -16H363V101H-12V-16Z" fill="white"/>
</mask>
<g mask="url(#mask0_2692_147)">
<path d="M149.132 24.7647H132.868V15.9007H149.132C152.223 15.9007 154.255 17.5274 154.255 20.2927C154.255 23.138 152.223 24.7647 149.132 24.7647ZM157.264 34.8474C163.77 32.49 168.079 26.9594 168.079 19.5607C168.079 9.39543 160.03 3.05273 149.132 3.05273H119.044V55.91H132.868V37.6127H142.302L154.988 55.91H170.194V52.9007L157.264 35.3367V34.8474Z" fill="black"/>
<path d="M315.845 43.8748V3.05212H302.021V55.9094H342.436V43.8748H315.845Z" fill="black"/>
<path d="M241.643 15.9013H291.672V3.05334H241.643V15.9013Z" fill="black"/>
<path d="M241.643 55.9093H291.672V43.0613H241.643V55.9093Z" fill="black"/>
<path d="M216.901 22.3253H193.969V3.052H180.145V55.9093H193.969V35.1733H216.901V55.9093H230.725V3.052H216.901V22.3253Z" fill="black"/>
<path d="M246.389 34.0637C245.712 34.0637 245.084 33.9531 244.504 33.7317C243.924 33.5104 243.421 33.1957 242.996 32.7864C242.571 32.3771 242.239 31.8971 242 31.3464C241.761 30.7957 241.643 30.1904 241.643 29.5317C241.643 28.8717 241.761 28.2664 242 27.7157C242.239 27.1651 242.572 26.6837 243.001 26.2757C243.432 25.8664 243.935 25.5517 244.511 25.3304C245.087 25.1091 245.717 24.9984 246.401 24.9984C247.161 24.9984 247.848 25.1291 248.461 25.3931C249.075 25.6557 249.589 26.0411 250.008 26.5504L248.705 27.7531C248.405 27.4104 248.071 27.1544 247.703 26.9824C247.336 26.8117 246.935 26.7264 246.501 26.7264C246.092 26.7264 245.717 26.7931 245.375 26.9264C245.032 27.0597 244.736 27.2517 244.485 27.5024C244.236 27.7531 244.041 28.0491 243.904 28.3917C243.765 28.7331 243.696 29.1144 243.696 29.5317C243.696 29.9491 243.765 30.3277 243.904 30.6704C244.041 31.0131 244.236 31.3091 244.485 31.5597C244.736 31.8104 245.032 32.0024 245.375 32.1357C245.717 32.2691 246.092 32.3357 246.501 32.3357C246.935 32.3357 247.336 32.2504 247.703 32.0784C248.071 31.9077 248.405 31.6477 248.705 31.2957L250.008 32.4984C249.589 33.0077 249.075 33.3957 248.461 33.6624C247.848 33.9304 247.156 34.0637 246.389 34.0637Z" fill="black"/>
<path d="M252.624 33.9132V25.1479H254.652V32.2599H259.046V33.9132H252.624Z" fill="black"/>
<path d="M261.439 25.1479H263.467V33.9132H261.439V25.1479Z" fill="black"/>
<path d="M266.798 33.9132V25.1479H268.477L273.647 31.4586H272.833V25.1479H274.837V33.9132H273.171L267.989 27.6026H268.802V33.9132H266.798Z" fill="black"/>
<path d="M278.167 25.1479H280.195V33.9132H278.167V25.1479Z" fill="black"/>
<path d="M287.721 34.0637C287.044 34.0637 286.416 33.9531 285.836 33.7317C285.256 33.5104 284.753 33.1957 284.328 32.7864C283.903 32.3771 283.571 31.8971 283.332 31.3464C283.093 30.7957 282.975 30.1904 282.975 29.5317C282.975 28.8717 283.093 28.2664 283.332 27.7157C283.571 27.1651 283.904 26.6837 284.333 26.2757C284.764 25.8664 285.267 25.5517 285.843 25.3304C286.419 25.1091 287.049 24.9984 287.733 24.9984C288.493 24.9984 289.18 25.1291 289.793 25.3931C290.407 25.6557 290.921 26.0411 291.34 26.5504L290.037 27.7531C289.737 27.4104 289.403 27.1544 289.035 26.9824C288.668 26.8117 288.267 26.7264 287.833 26.7264C287.424 26.7264 287.049 26.7931 286.707 26.9264C286.364 27.0597 286.068 27.2517 285.817 27.5024C285.568 27.7531 285.373 28.0491 285.236 28.3917C285.097 28.7331 285.028 29.1144 285.028 29.5317C285.028 29.9491 285.097 30.3277 285.236 30.6704C285.373 31.0131 285.568 31.3091 285.817 31.5597C286.068 31.8104 286.364 32.0024 286.707 32.1357C287.049 32.2691 287.424 32.3357 287.833 32.3357C288.267 32.3357 288.668 32.2504 289.035 32.0784C289.403 31.9077 289.737 31.6477 290.037 31.2957L291.34 32.4984C290.921 33.0077 290.407 33.3957 289.793 33.6624C289.18 33.9304 288.488 34.0637 287.721 34.0637Z" fill="black"/>
<path d="M69.901 79.8229C70.4676 79.8229 71.005 79.6869 71.5103 79.4162C71.6836 79.3176 71.8436 79.2656 71.9916 79.2589C72.1396 79.2522 72.269 79.3176 72.3796 79.4536C72.4903 79.5896 72.5463 79.7456 72.5463 79.9256C72.5463 80.1029 72.429 80.2669 72.1956 80.4149C71.4796 80.8842 70.6783 81.1176 69.7903 81.1176C68.6676 81.1176 67.7183 80.7669 66.941 80.0642C66.1276 79.3109 65.7263 78.3242 65.7383 77.1029C65.7383 75.8829 66.1396 74.8962 66.941 74.1442C67.7063 73.4282 68.6556 73.0762 69.7903 73.0896C70.3943 73.0896 70.8916 73.1669 71.2796 73.3202C71.6676 73.4749 71.9756 73.6282 72.205 73.7829C72.4316 73.9376 72.5463 74.1069 72.5463 74.2922C72.5463 74.4762 72.4903 74.6309 72.3796 74.7536C72.269 74.8776 72.1583 74.9389 72.0463 74.9389C71.8743 74.9389 71.6956 74.8896 71.5103 74.7909C70.993 74.5082 70.457 74.3722 69.901 74.3842C69.013 74.3842 68.325 74.6336 67.8383 75.1336C67.3503 75.6322 67.1076 76.2896 67.1076 77.1029C67.1076 77.9176 67.3503 78.5736 67.8383 79.0736C68.325 79.5736 69.013 79.8229 69.901 79.8229Z" fill="black"/>
<path d="M79.992 79.2402C80.2334 79.4562 80.504 79.6136 80.8067 79.7122C81.108 79.8109 81.4014 79.8602 81.6854 79.8602C81.968 79.8602 82.2587 79.8109 82.5547 79.7122C82.8507 79.6136 83.1214 79.4536 83.368 79.2309C83.9107 78.7376 84.1827 78.0229 84.1827 77.0856C84.1827 76.1722 83.9107 75.4629 83.368 74.9576C82.912 74.5389 82.3507 74.3349 81.6854 74.3469C80.5867 74.3469 79.828 74.8402 79.4094 75.8269C79.2614 76.1842 79.1867 76.6109 79.1867 77.1029C79.1867 77.5976 79.2614 78.0229 79.4094 78.3802C79.5574 78.7376 79.752 79.0242 79.992 79.2402ZM81.6854 73.0896C82.856 73.0896 83.8 73.4589 84.516 74.1989C85.2307 74.9522 85.576 75.9202 85.5507 77.1029C85.5507 78.3002 85.2067 79.2682 84.516 80.0082C83.8 80.7482 82.856 81.1176 81.6854 81.1176C80.5014 81.1176 79.564 80.7482 78.8734 80.0082C78.1574 79.2682 77.8 78.3002 77.8 77.1029C77.8 75.8949 78.1574 74.9269 78.8734 74.1989C79.564 73.4589 80.5014 73.0896 81.6854 73.0896Z" fill="black"/>
<path d="M93.8759 79.8417C94.9989 79.8417 95.5529 79.4897 95.5409 78.787C95.5409 78.5643 95.4309 78.3923 95.2079 78.2683C94.9869 78.1457 94.7089 78.0403 94.3759 77.9537C94.0429 77.8683 93.6789 77.7763 93.2839 77.6763C92.8889 77.579 92.5189 77.443 92.1749 77.2697C91.8279 77.0977 91.5449 76.8723 91.3229 76.595C91.1009 76.3163 90.9889 75.975 90.9889 75.5683C90.9889 75.1617 91.0519 74.8137 91.1759 74.523C91.2989 74.2323 91.4839 73.983 91.7309 73.7737C92.2599 73.3177 92.9999 73.0897 93.9509 73.0897C94.7149 73.0897 95.4489 73.2123 96.1519 73.459C96.2879 73.5083 96.3949 73.5923 96.4759 73.7083C96.5559 73.8257 96.5959 73.9497 96.5959 74.079C96.5959 74.2083 96.5369 74.335 96.4199 74.4577C96.3029 74.5817 96.1879 74.643 96.0769 74.643C95.9669 74.643 95.8309 74.619 95.6709 74.5683C95.1889 74.4217 94.6589 74.347 94.0799 74.347C93.4999 74.347 93.0629 74.4457 92.7649 74.643C92.4709 74.8403 92.3209 75.0843 92.3209 75.3737C92.3209 75.6643 92.4329 75.8737 92.6549 76.003C92.8769 76.1323 93.1569 76.247 93.4969 76.3443C93.8359 76.4443 94.2069 76.5363 94.6069 76.6217C95.0079 76.7083 95.3749 76.839 95.7079 77.011C96.4969 77.4177 96.8919 78.0403 96.8919 78.879C96.8919 79.5337 96.6449 80.0577 96.1519 80.4523C95.6329 80.8963 94.8999 81.1177 93.9509 81.1177C92.9389 81.1177 92.0269 80.8897 91.2119 80.4337C91.0399 80.311 90.9509 80.159 90.9439 79.9803C90.9369 79.8017 90.9929 79.647 91.1109 79.5177C91.2279 79.3883 91.3479 79.323 91.4709 79.323C91.5949 79.323 91.7549 79.367 91.9519 79.4523C92.5319 79.7123 93.1729 79.8417 93.8759 79.8417Z" fill="black"/>
<path d="M103.977 74.4954C104.593 73.57 105.45 73.102 106.549 73.0887C107.09 73.0887 107.59 73.2487 108.046 73.57C108.417 73.8287 108.694 74.1874 108.88 74.6434C109.162 74.1994 109.441 73.8914 109.712 73.718C110.28 73.2994 110.926 73.0887 111.654 73.0887C112.468 73.0887 113.109 73.4034 113.578 74.0327C113.985 74.5634 114.189 75.2167 114.189 75.994V80.3594C114.189 80.5447 114.124 80.7047 113.994 80.8407C113.865 80.9754 113.701 81.0447 113.505 81.0447C113.32 81.0447 113.158 80.9754 113.024 80.8407C112.888 80.7047 112.82 80.5447 112.82 80.3594V76.2714C112.82 75.63 112.705 75.1514 112.477 74.8367C112.249 74.5234 111.852 74.366 111.284 74.366C110.396 74.366 109.662 74.8527 109.082 75.8274V80.3594C109.082 80.5447 109.018 80.7047 108.889 80.8407C108.758 80.9754 108.596 81.0447 108.398 81.0447C108.213 81.0447 108.053 80.9754 107.917 80.8407C107.782 80.7047 107.714 80.5447 107.714 80.3594V76.2714C107.714 75.63 107.6 75.1514 107.372 74.8367C107.144 74.5234 106.745 74.366 106.178 74.366C105.29 74.366 104.557 74.8527 103.977 75.8274V80.3594C103.977 80.5447 103.909 80.7047 103.773 80.8407C103.638 80.9754 103.477 81.0447 103.292 81.0447C103.108 81.0447 102.948 80.9754 102.812 80.8407C102.676 80.7047 102.608 80.5447 102.608 80.3594V73.866C102.608 73.6807 102.672 73.5181 102.802 73.3755C102.932 73.2341 103.094 73.1634 103.292 73.1634C103.477 73.1634 103.638 73.2314 103.773 73.366C103.909 73.502 103.977 73.6687 103.977 73.866V74.4954Z" fill="black"/>
<path d="M123.624 74.2545C122.724 74.2545 122.069 74.6559 121.662 75.4572C121.514 75.7412 121.422 76.0799 121.385 76.4745H125.862C125.825 75.7599 125.56 75.1919 125.066 74.7732C124.672 74.4279 124.19 74.2545 123.624 74.2545ZM122.172 79.2225C122.609 79.6225 123.213 79.8225 123.985 79.8225C124.756 79.8225 125.412 79.6999 125.954 79.4532C126.126 79.3665 126.281 79.3212 126.417 79.3145C126.553 79.3079 126.68 79.3612 126.796 79.4719C126.913 79.5825 126.972 79.7052 126.972 79.8412C126.972 80.1132 126.864 80.3039 126.649 80.4159C126.432 80.5265 126.238 80.6252 126.066 80.7105C125.893 80.7972 125.708 80.8719 125.51 80.9332C125.054 81.0559 124.524 81.1172 123.92 81.1172C122.674 81.1172 121.709 80.7692 121.025 80.0732C120.34 79.3759 119.998 78.3865 119.998 77.1039C119.998 75.9932 120.288 75.0679 120.868 74.3292C121.521 73.5025 122.44 73.0892 123.624 73.0892C124.758 73.0892 125.652 73.4719 126.306 74.2359C126.922 74.9519 127.232 75.8452 127.232 76.9185C127.232 77.1039 127.166 77.2639 127.037 77.3999C126.908 77.5345 126.744 77.6025 126.546 77.6025H121.385C121.472 78.2812 121.734 78.8212 122.172 79.2225Z" fill="black"/>
<path d="M135.833 79.897C136.105 79.897 136.299 79.8756 136.416 79.8316C136.533 79.789 136.66 79.7676 136.796 79.7676C136.931 79.7676 137.055 79.8196 137.165 79.925C137.277 80.0303 137.332 80.1836 137.332 80.3876C137.332 80.5903 137.233 80.7356 137.036 80.8223C136.604 81.0183 136.235 81.1183 135.925 81.1183C135.617 81.1183 135.336 81.1023 135.084 81.0716C134.832 81.041 134.588 80.957 134.353 80.8223C133.799 80.501 133.521 79.9343 133.521 79.1196V74.421H132.448C132.263 74.421 132.164 74.3223 132.152 74.125C132.152 74.0383 132.201 73.9583 132.3 73.885L134.353 71.869C134.44 71.7823 134.527 71.7356 134.612 71.729C134.699 71.7236 134.767 71.7516 134.816 71.813C134.865 71.8743 134.889 71.949 134.889 72.0343V73.237H136.611C136.783 73.237 136.925 73.293 137.036 73.4036C137.147 73.5143 137.203 73.657 137.203 73.829C137.203 74.0023 137.147 74.1436 137.036 74.2543C136.925 74.3663 136.783 74.421 136.611 74.421H134.889V79.009C134.889 79.3916 135.007 79.6503 135.241 79.7863C135.364 79.8596 135.561 79.897 135.833 79.897Z" fill="black"/>
<path d="M144.482 79.2402C144.723 79.4562 144.994 79.6136 145.296 79.7122C145.598 79.8109 145.891 79.8602 146.175 79.8602C146.458 79.8602 146.748 79.8109 147.044 79.7122C147.34 79.6136 147.611 79.4536 147.858 79.2309C148.4 78.7376 148.672 78.0229 148.672 77.0856C148.672 76.1722 148.4 75.4629 147.858 74.9576C147.402 74.5389 146.84 74.3349 146.175 74.3469C145.076 74.3469 144.318 74.8402 143.899 75.8269C143.751 76.1842 143.676 76.6109 143.676 77.1029C143.676 77.5976 143.751 78.0229 143.899 78.3802C144.047 78.7376 144.242 79.0242 144.482 79.2402ZM146.175 73.0896C147.346 73.0896 148.29 73.4589 149.006 74.1989C149.72 74.9522 150.066 75.9202 150.04 77.1029C150.04 78.3002 149.696 79.2682 149.006 80.0082C148.29 80.7482 147.346 81.1176 146.175 81.1176C144.991 81.1176 144.054 80.7482 143.363 80.0082C142.647 79.2682 142.29 78.3002 142.29 77.1029C142.29 75.8949 142.647 74.9269 143.363 74.1989C144.054 73.4589 144.991 73.0896 146.175 73.0896Z" fill="black"/>
<path d="M156.22 70.0274C156.356 69.8981 156.523 69.8328 156.72 69.8328C156.916 69.8328 157.08 69.8981 157.209 70.0274C157.339 70.1568 157.404 70.3208 157.404 70.5181V80.3594C157.404 80.5448 157.339 80.7048 157.209 80.8408C157.08 80.9754 156.916 81.0448 156.72 81.0448C156.523 81.0448 156.356 80.9754 156.22 80.8408C156.084 80.7048 156.017 80.5448 156.017 80.3594V70.5181C156.017 70.3208 156.084 70.1568 156.22 70.0274Z" fill="black"/>
<path d="M165.553 79.2402C165.794 79.4562 166.065 79.6136 166.368 79.7122C166.669 79.8109 166.962 79.8602 167.246 79.8602C167.529 79.8602 167.82 79.8109 168.116 79.7122C168.412 79.6136 168.682 79.4536 168.929 79.2309C169.472 78.7376 169.744 78.0229 169.744 77.0856C169.744 76.1722 169.472 75.4629 168.929 74.9576C168.473 74.5389 167.912 74.3349 167.246 74.3469C166.148 74.3469 165.389 74.8402 164.97 75.8269C164.822 76.1842 164.748 76.6109 164.748 77.1029C164.748 77.5976 164.822 78.0229 164.97 78.3802C165.118 78.7376 165.313 79.0242 165.553 79.2402ZM167.246 73.0896C168.417 73.0896 169.361 73.4589 170.077 74.1989C170.792 74.9522 171.137 75.9202 171.112 77.1029C171.112 78.3002 170.768 79.2682 170.077 80.0082C169.361 80.7482 168.417 81.1176 167.246 81.1176C166.062 81.1176 165.125 80.7482 164.434 80.0082C163.718 79.2682 163.361 78.3002 163.361 77.1029C163.361 75.8949 163.718 74.9269 164.434 74.1989C165.125 73.4589 166.062 73.0896 167.246 73.0896Z" fill="black"/>
<path d="M182.766 75.457C182.482 75.161 182.159 74.9024 181.794 74.6797C181.431 74.4584 181.027 74.3464 180.583 74.3464C180.139 74.3464 179.76 74.4024 179.446 74.513C179.13 74.6237 178.856 74.7904 178.623 75.013C178.128 75.4824 177.882 76.1544 177.882 77.029C177.882 78.337 178.4 79.1757 179.436 79.545C179.756 79.6557 180.139 79.7117 180.583 79.7117C181.323 79.7117 182.051 79.3357 182.766 78.5837V75.457ZM182.766 74.2357V73.8664C182.766 73.681 182.831 73.517 182.96 73.3757C183.09 73.2344 183.247 73.1637 183.432 73.1637C183.618 73.1637 183.78 73.2317 183.922 73.3664C184.064 73.5024 184.135 73.669 184.135 73.8664V80.637C184.135 81.9197 183.827 82.9024 183.21 83.5877C182.594 84.272 181.718 84.614 180.583 84.614C179.374 84.614 178.29 84.349 177.327 83.8184C177.154 83.7077 177.068 83.553 177.068 83.357C177.068 83.1584 177.127 82.9957 177.243 82.8664C177.36 82.737 177.482 82.6717 177.604 82.6717C177.728 82.6717 177.839 82.6904 177.938 82.7277C178.702 83.109 179.535 83.301 180.435 83.301C181.99 83.301 182.766 82.481 182.766 80.841V79.8224C182.051 80.5877 181.187 80.9704 180.176 80.9704C179.214 80.9704 178.388 80.6437 177.696 79.989C176.896 79.249 176.495 78.2624 176.495 77.029C176.495 75.7837 176.896 74.7904 177.696 74.0517C178.388 73.3984 179.227 73.073 180.214 73.0797C181.199 73.0864 182.051 73.4717 182.766 74.2357Z" fill="black"/>
<path d="M196.78 73.3665C196.909 73.5025 196.974 73.6438 196.974 73.7918C196.974 73.9398 196.956 74.0518 196.918 74.1251L192.793 84.06C192.669 84.38 192.46 84.54 192.164 84.54C191.99 84.54 191.84 84.473 191.71 84.337C191.581 84.201 191.517 84.069 191.517 83.9398C191.517 83.8105 191.529 83.7011 191.553 83.6158L192.533 81.0811L189.685 74.1438C189.648 74.0451 189.629 73.9251 189.629 73.7825C189.629 73.6411 189.694 73.5025 189.824 73.3665C189.953 73.2305 190.097 73.1638 190.257 73.1638C190.59 73.1638 190.818 73.3051 190.942 73.5891L193.273 79.3785L195.66 73.6078C195.784 73.2985 195.993 73.1505 196.289 73.1638C196.486 73.1638 196.649 73.2305 196.78 73.3665Z" fill="black"/>
<path d="M213.105 75.938C212.549 76.2967 212.168 76.758 211.959 77.326C211.884 77.5474 211.851 77.794 211.856 78.066C211.861 78.3367 211.924 78.59 212.041 78.8247C212.159 79.058 212.321 79.262 212.531 79.4354C212.951 79.7927 213.451 79.9674 214.029 79.962C214.609 79.9554 215.087 79.8687 215.464 79.7034C215.84 79.5367 216.176 79.3354 216.472 79.102L213.105 75.938ZM217.379 79.934C216.467 80.7234 215.429 81.118 214.271 81.118C213.024 81.118 212.069 80.7847 211.404 80.1194C210.836 79.5514 210.552 78.842 210.552 77.9914C210.552 77.3007 210.761 76.6714 211.181 76.1047C211.501 75.6727 211.859 75.334 212.253 75.0874C211.983 74.766 211.764 74.4394 211.597 74.106C211.431 73.7727 211.348 73.398 211.348 72.978C211.348 72.5594 211.412 72.1887 211.541 71.8687C211.672 71.5474 211.859 71.2647 212.107 71.0167C212.624 70.4994 213.315 70.2407 214.179 70.2407C214.856 70.2407 215.528 70.462 216.193 70.906C216.367 71.0047 216.457 71.1407 216.463 71.3127C216.468 71.486 216.423 71.6274 216.324 71.7394C216.225 71.85 216.115 71.9047 215.991 71.9047C215.867 71.9047 215.732 71.8554 215.584 71.7567C215.152 71.522 214.753 71.4087 214.391 71.414C214.027 71.4207 213.744 71.4647 213.54 71.5447C213.336 71.6247 213.167 71.7327 213.031 71.8687C212.759 72.1394 212.624 72.4234 212.624 72.7194C212.624 73.0154 212.648 73.2487 212.697 73.422C212.747 73.5954 212.84 73.7674 212.975 73.9394C213.148 74.2114 213.531 74.618 214.123 75.1607L217.287 78.158C217.459 77.886 217.6 77.6367 217.711 77.4087C217.823 77.1807 217.931 77.0287 218.035 76.9554C218.139 76.882 218.272 76.8447 218.433 76.8447C218.593 76.8447 218.732 76.9034 218.849 77.0207C218.967 77.138 219.024 77.2647 219.024 77.3994C219.024 77.7207 218.759 78.2567 218.229 79.0087L219.228 79.9714C219.388 80.106 219.471 80.2647 219.477 80.442C219.484 80.622 219.432 80.7727 219.321 80.8954C219.209 81.0194 219.059 81.0807 218.867 81.0807C218.676 81.0807 218.52 81.0247 218.396 80.914L217.379 79.934Z" fill="black"/>
<path d="M235.286 74.4954C235.902 73.57 236.76 73.102 237.858 73.0887C238.4 73.0887 238.9 73.2487 239.357 73.57C239.726 73.8287 240.004 74.1874 240.189 74.6434C240.473 74.1994 240.75 73.8914 241.021 73.718C241.589 73.2994 242.236 73.0887 242.964 73.0887C243.777 73.0887 244.42 73.4034 244.888 74.0327C245.294 74.5634 245.498 75.2167 245.498 75.994V80.3594C245.498 80.5447 245.433 80.7047 245.304 80.8407C245.174 80.9754 245.01 81.0447 244.814 81.0447C244.629 81.0447 244.469 80.9754 244.332 80.8407C244.197 80.7047 244.129 80.5447 244.129 80.3594V76.2714C244.129 75.63 244.016 75.1514 243.786 74.8367C243.558 74.5234 243.161 74.366 242.593 74.366C241.705 74.366 240.972 74.8527 240.392 75.8274V80.3594C240.392 80.5447 240.326 80.7047 240.198 80.8407C240.069 80.9754 239.905 81.0447 239.708 81.0447C239.522 81.0447 239.362 80.9754 239.226 80.8407C239.092 80.7047 239.024 80.5447 239.024 80.3594V76.2714C239.024 75.63 238.909 75.1514 238.681 74.8367C238.453 74.5234 238.054 74.366 237.488 74.366C236.6 74.366 235.866 74.8527 235.286 75.8274V80.3594C235.286 80.5447 235.218 80.7047 235.084 80.8407C234.946 80.9754 234.786 81.0447 234.601 81.0447C234.417 81.0447 234.257 80.9754 234.121 80.8407C233.984 80.7047 233.918 80.5447 233.918 80.3594V73.866C233.918 73.6807 233.981 73.5181 234.112 73.3755C234.241 73.2341 234.405 73.1634 234.601 73.1634C234.786 73.1634 234.946 73.2314 235.084 73.366C235.218 73.502 235.286 73.6687 235.286 73.866V74.4954Z" fill="black"/>
<path d="M253.48 79.2402C253.72 79.4562 253.992 79.6136 254.294 79.7122C254.596 79.8109 254.89 79.8602 255.174 79.8602C255.456 79.8602 255.746 79.8109 256.043 79.7122C256.339 79.6136 256.61 79.4536 256.856 79.2309C257.398 78.7376 257.671 78.0229 257.671 77.0856C257.671 76.1722 257.398 75.4629 256.856 74.9576C256.399 74.5389 255.839 74.3349 255.174 74.3469C254.075 74.3469 253.316 74.8402 252.898 75.8269C252.75 76.1842 252.675 76.6109 252.675 77.1029C252.675 77.5976 252.75 78.0229 252.898 78.3802C253.046 78.7376 253.239 79.0242 253.48 79.2402ZM255.174 73.0896C256.343 73.0896 257.287 73.4589 258.004 74.1989C258.719 74.9522 259.063 75.9202 259.039 77.1029C259.039 78.3002 258.694 79.2682 258.004 80.0082C257.287 80.7482 256.343 81.1176 255.174 81.1176C253.988 81.1176 253.052 80.7482 252.36 80.0082C251.646 79.2682 251.287 78.3002 251.287 77.1029C251.287 75.8949 251.646 74.9269 252.36 74.1989C253.052 73.4589 253.988 73.0896 255.174 73.0896Z" fill="black"/>
<path d="M266.272 74.5136C266.987 73.5643 267.783 73.0896 268.659 73.0896H268.733C268.917 73.0896 269.075 73.1536 269.204 73.283C269.333 73.4123 269.399 73.5763 269.399 73.7736C269.399 73.971 269.331 74.1283 269.195 74.2456C269.059 74.363 268.893 74.4216 268.695 74.4216H268.621C268.116 74.4216 267.665 74.5443 267.271 74.791C266.876 75.0376 266.543 75.359 266.272 75.7536V80.359C266.272 80.5443 266.204 80.7056 266.069 80.8403C265.932 80.9763 265.772 81.0443 265.587 81.0443C265.403 81.0443 265.243 80.9763 265.107 80.8403C264.969 80.7056 264.904 80.5443 264.904 80.359V73.8656C264.904 73.6803 264.967 73.5176 265.097 73.375C265.227 73.235 265.391 73.163 265.587 73.163C265.772 73.163 265.932 73.231 266.069 73.367C266.204 73.503 266.272 73.6696 266.272 73.8656V74.5136Z" fill="black"/>
<path d="M277.853 74.2545C276.953 74.2545 276.299 74.6559 275.891 75.4572C275.743 75.7412 275.651 76.0799 275.614 76.4745H280.091C280.054 75.7599 279.789 75.1919 279.295 74.7732C278.901 74.4279 278.421 74.2545 277.853 74.2545ZM276.401 79.2225C276.838 79.6225 277.442 79.8225 278.214 79.8225C278.985 79.8225 279.641 79.6999 280.183 79.4532C280.357 79.3665 280.51 79.3212 280.646 79.3145C280.782 79.3079 280.909 79.3612 281.026 79.4719C281.143 79.5825 281.202 79.7052 281.202 79.8412C281.202 80.1132 281.094 80.3039 280.878 80.4159C280.661 80.5265 280.467 80.6252 280.294 80.7105C280.122 80.7972 279.937 80.8719 279.739 80.9332C279.283 81.0559 278.753 81.1172 278.149 81.1172C276.903 81.1172 275.938 80.7692 275.254 80.0732C274.569 79.3759 274.226 78.3865 274.226 77.1039C274.226 75.9932 274.517 75.0679 275.097 74.3292C275.75 73.5025 276.669 73.0892 277.853 73.0892C278.987 73.0892 279.881 73.4719 280.535 74.2359C281.153 74.9519 281.461 75.8452 281.461 76.9185C281.461 77.1039 281.395 77.2639 281.266 77.3999C281.137 77.5345 280.973 77.6025 280.775 77.6025H275.614C275.701 78.2812 275.962 78.8212 276.401 79.2225Z" fill="black"/>
</g>
</g>
<defs>
<clipPath id="clip0_2692_147">
<rect width="346" height="85" fill="white"/>
</clipPath>
</defs>
</svg>
