<?xml version="1.0" encoding="UTF-8"?> <svg xmlns="http://www.w3.org/2000/svg" viewBox="0 0 120 27.59"><defs><style>.cls-1{fill:#231f20;}.cls-2{fill:#fff;}</style></defs><title>Ресурс 1</title><g id="Слой_2" data-name="Слой 2"><g id="Слой_1-2" data-name="Слой 1"><g id="Слой_1-2-2" data-name="Слой 1-2"><path class="cls-1" d="M63.07.55c1.21,0,2.38,0,3.55,0,.16,0,.34.25.48.42q3.83,4.89,7.63,9.8c1.21,1.55,2.42,3.1,3.74,4.64v-.5q0-6.94,0-13.87c0-.43.12-.54.53-.53,1.11,0,2.22,0,3.37,0V21.63c-.45,0-2.52,0-3.09,0a1,1,0,0,1-1-.48Q72.78,14,67.22,6.9L67,6.62v15H63.07Z"></path><path class="cls-1" d="M20.91.57h3.87v9h8.73v-9h3.88v21H33.53V12.45H24.81V21.6h-3.9Z"></path><path class="cls-1" d="M39.42,21.63l1.2-2.7q4-9,8-18a.57.57,0,0,1,.62-.43c.8,0,1.6,0,2.39,0a.6.6,0,0,1,.67.44q4.22,9.5,8.44,19l.73,1.64H57.32c-.6-1.42-1.21-2.83-1.8-4.27a.58.58,0,0,0-.62-.43q-4.44,0-8.9,0a.58.58,0,0,0-.63.42c-.53,1.32-1.1,2.63-1.64,3.95a.48.48,0,0,1-.52.37C42,21.62,40.74,21.63,39.42,21.63ZM50.51,4.91H50.4L46.71,14H54.2Z"></path><path class="cls-1" d="M4,14.42A4.33,4.33,0,0,0,7.19,18.5,5.21,5.21,0,0,0,13,17.21a5.68,5.68,0,0,0,1-1.87c.15-.37.29-.56.69-.56.93,0,1.86,0,2.8,0,.43,0,.53.19.51.59a6.23,6.23,0,0,1-2.19,4.31,10.3,10.3,0,0,1-13.92-.47A6.19,6.19,0,0,1,.16,15.37a62.48,62.48,0,0,1,0-8.21A6.8,6.8,0,0,1,3.27,1.72,10.26,10.26,0,0,1,10.45.08a8.94,8.94,0,0,1,5.7,2.73A6.29,6.29,0,0,1,18,7.45c0,.26-.11.39-.37.39H14.56c-.36,0-.43-.23-.47-.53A4.37,4.37,0,0,0,11.4,3.78a5.88,5.88,0,0,0-3.8-.27A4.5,4.5,0,0,0,4,7.78C3.91,8.88,3.9,13.3,4,14.42Z"></path><path class="cls-1" d="M106.45.57H120v3h-9.62v6H120v2.84h-9.63v6.18H120v3H106.45Z"></path><path class="cls-2" d="M50.51,4.91,54.2,14H46.71L50.4,4.92Z"></path><path class="cls-1" d="M86.66,24.75a1.68,1.68,0,0,0-2.36,0,1.71,1.71,0,0,0,0,2.34,1.53,1.53,0,0,0,1.18.49,1.55,1.55,0,0,0,1.18-.49,1.73,1.73,0,0,0,0-2.35Zm-1.18,2.46a1.19,1.19,0,0,1-.87-.37,1.35,1.35,0,0,1-.35-.91,1.28,1.28,0,0,1,.35-.91,1.11,1.11,0,0,1,.87-.37,1.16,1.16,0,0,1,.87.37,1.31,1.31,0,0,1,.35.91,1.29,1.29,0,0,1-.35.91,1.15,1.15,0,0,1-.87.37Z"></path><path class="cls-1" d="M89.54,26.23a1.18,1.18,0,0,0,.6-.3,1,1,0,0,0,0-1.29,1.27,1.27,0,0,0-.92-.32H87.82v3.22h.41V26.31h.87l.9,1.21v0h.51ZM88.23,24.7h1a1,1,0,0,1,.58.16.54.54,0,0,1,.2.44.55.55,0,0,1-.21.46.88.88,0,0,1-.57.17h-1Z"></path><polygon class="cls-1" points="81.02 27.54 81.43 27.54 81.43 26.16 83.14 26.16 83.14 25.78 81.43 25.78 81.43 24.7 83.34 24.7 83.34 24.32 81.02 24.32 81.02 27.54"></polygon><polygon class="cls-1" points="92.22 24.32 92.22 24.7 93.28 24.7 93.28 27.54 93.69 27.54 93.69 24.7 94.76 24.7 94.76 24.32 92.22 24.32"></polygon><path class="cls-1" d="M97.09,26.23a1.18,1.18,0,0,0,.6-.3.88.88,0,0,0,.24-.64.92.92,0,0,0-.25-.65,1.29,1.29,0,0,0-.92-.32H95.37v3.22h.41V26.31h.87l.91,1.21v0h.51ZM95.78,24.7h1a1,1,0,0,1,.58.16.51.51,0,0,1,.2.44.55.55,0,0,1-.21.46.88.88,0,0,1-.57.17h-1Z"></path><path class="cls-1" d="M100.19,24.31h-.37l-1.45,3.2,0,0h.43l.37-.84h1.69l.36.82v0h.44Zm.49,2H99.32l.68-1.52Z"></path><polygon class="cls-1" points="103.49 27 102.39 24.34 102.38 24.32 101.92 24.32 103.3 27.54 103.31 27.56 103.66 27.56 105.03 24.36 105.04 24.32 104.6 24.32 103.49 27"></polygon><polygon class="cls-1" points="106.01 26.1 107.73 26.1 107.73 25.72 106.01 25.72 106.01 24.7 107.94 24.7 107.94 24.32 105.6 24.32 105.6 27.54 107.96 27.54 107.96 27.16 106.01 27.16 106.01 26.1"></polygon><polygon class="cls-1" points="109.04 24.32 108.63 24.32 108.63 27.54 110.82 27.54 110.82 27.15 109.04 27.15 109.04 24.32"></polygon><polygon class="cls-1" points="111.83 24.32 111.42 24.32 111.42 27.54 113.61 27.54 113.61 27.15 111.83 27.15 111.83 24.32"></polygon><polygon class="cls-1" points="114.63 27.16 114.63 26.1 116.36 26.1 116.36 25.72 114.63 25.72 114.63 24.7 116.56 24.7 116.56 24.32 114.22 24.32 114.22 27.54 116.58 27.54 116.58 27.16 114.63 27.16"></polygon><path class="cls-1" d="M119,26.23a1.11,1.11,0,0,0,.59-.3.94.94,0,0,0,0-1.29,1.25,1.25,0,0,0-.92-.32h-1.38v3.22h.41V26.31h.86l.91,1.21v0h.5Zm-1.31-1.53h1a1,1,0,0,1,.58.16.54.54,0,0,1,.2.44.53.53,0,0,1-.22.46.84.84,0,0,1-.57.17h-.94Z"></path><path class="cls-1" d="M89.38,14.41a4.35,4.35,0,0,0,3.21,4.08,5.23,5.23,0,0,0,5.77-1.29,5.68,5.68,0,0,0,1-1.87c.15-.37.29-.56.68-.56.94,0,1.87,0,2.8,0,.43,0,.54.19.52.59a6.23,6.23,0,0,1-2.19,4.31,10.32,10.32,0,0,1-13.93-.47,6.18,6.18,0,0,1-1.7-3.84,60.8,60.8,0,0,1,0-8.21,6.78,6.78,0,0,1,3.16-5.44A10.25,10.25,0,0,1,95.86.07a8.89,8.89,0,0,1,5.69,2.73,6.31,6.31,0,0,1,1.87,4.64c0,.26-.11.39-.38.39H100c-.36,0-.43-.23-.47-.53a4.35,4.35,0,0,0-2.69-3.52A5.83,5.83,0,0,0,93,3.5a4.5,4.5,0,0,0-3.63,4.28C89.31,8.87,89.31,13.3,89.38,14.41Z"></path></g></g></g></svg> 