<svg width="500" height="500" viewBox="0 0 500 500" fill="none" xmlns="http://www.w3.org/2000/svg">
<rect width="500" height="500" fill="#F9B577"/>
<mask id="mask0_2001_84" style="mask-type:luminance" maskUnits="userSpaceOnUse" x="50" y="201" width="400" height="98">
<path d="M449.267 201H50.7334V299H449.267V201Z" fill="white"/>
</mask>
<g mask="url(#mask0_2001_84)">
<path d="M97.9437 226.74H71.5299V204.519H55.6069V265.46H71.5299V241.553H97.9437V265.46H113.867V204.519H97.9437V226.74Z" fill="#333333"/>
<path d="M141.566 240.71H174.07V226.834H141.566V218.395H175.755V204.52H125.644V265.461H175.941V251.586H141.566V240.71Z" fill="#333333"/>
<mask id="mask1_2001_84" style="mask-type:luminance" maskUnits="userSpaceOnUse" x="36" y="182" width="433" height="136">
<path d="M36.9116 182.553H468.848V317.447H36.9116V182.553Z" fill="white"/>
</mask>
<g mask="url(#mask1_2001_84)">
<path d="M222.507 229.552H203.774V219.332H222.507C226.068 219.332 228.408 221.208 228.408 224.396C228.408 227.677 226.068 229.552 222.507 229.552ZM231.874 241.177C239.368 238.459 244.331 232.083 244.331 223.552C244.331 211.832 235.06 204.52 222.507 204.52H187.851V265.461H203.774V244.365H214.64L229.252 265.461H246.767V261.991L231.874 241.741V241.177Z" fill="#333333"/>
<path d="M414.533 251.585V204.519H398.61V265.46H445.162V251.585H414.533Z" fill="#333333"/>
<path d="M329.065 219.333H386.69V204.52H329.065V219.333Z" fill="#333333"/>
<path d="M329.065 265.46H386.69V250.647H329.065V265.46Z" fill="#333333"/>
<path d="M300.566 226.74H274.152V204.519H258.229V265.46H274.152V241.553H300.566V265.46H316.489V204.519H300.566V226.74Z" fill="#333333"/>
<path d="M334.532 240.273C333.752 240.273 333.028 240.146 332.36 239.89C331.692 239.635 331.113 239.272 330.623 238.8C330.134 238.328 329.751 237.775 329.476 237.14C329.201 236.505 329.065 235.807 329.065 235.048C329.065 234.287 329.201 233.589 329.476 232.954C329.751 232.319 330.135 231.764 330.629 231.294C331.126 230.822 331.705 230.459 332.368 230.204C333.032 229.949 333.757 229.821 334.545 229.821C335.421 229.821 336.212 229.972 336.918 230.276C337.625 230.579 338.217 231.023 338.7 231.611L337.199 232.997C336.854 232.602 336.469 232.307 336.045 232.109C335.622 231.912 335.16 231.814 334.661 231.814C334.189 231.814 333.757 231.89 333.364 232.044C332.968 232.198 332.628 232.419 332.338 232.708C332.052 232.997 331.827 233.339 331.669 233.734C331.509 234.127 331.43 234.567 331.43 235.048C331.43 235.529 331.509 235.966 331.669 236.361C331.827 236.756 332.052 237.097 332.338 237.386C332.628 237.675 332.968 237.896 333.364 238.05C333.757 238.204 334.189 238.281 334.661 238.281C335.16 238.281 335.622 238.182 336.045 237.984C336.469 237.787 336.854 237.488 337.199 237.082L338.7 238.468C338.217 239.056 337.625 239.503 336.918 239.81C336.212 240.119 335.415 240.273 334.532 240.273Z" fill="#333333"/>
<path d="M341.713 240.1V229.994H344.049V238.194H349.11V240.1H341.713Z" fill="#333333"/>
<path d="M351.866 229.994H354.202V240.1H351.866V229.994Z" fill="#333333"/>
<path d="M358.039 240.1V229.994H359.973L365.928 237.27H364.99V229.994H367.299V240.1H365.38L359.411 232.824H360.347V240.1H358.039Z" fill="#333333"/>
<path d="M371.134 229.994H373.47V240.1H371.134V229.994Z" fill="#333333"/>
<path d="M382.138 240.273C381.359 240.273 380.635 240.146 379.967 239.89C379.299 239.635 378.72 239.272 378.23 238.8C377.741 238.328 377.358 237.775 377.083 237.14C376.808 236.505 376.672 235.807 376.672 235.048C376.672 234.287 376.808 233.589 377.083 232.954C377.358 232.319 377.742 231.764 378.236 231.294C378.733 230.822 379.312 230.459 379.975 230.204C380.639 229.949 381.364 229.821 382.152 229.821C383.028 229.821 383.819 229.972 384.525 230.276C385.232 230.579 385.824 231.023 386.307 231.611L384.806 232.997C384.461 232.602 384.076 232.307 383.652 232.109C383.229 231.912 382.767 231.814 382.267 231.814C381.796 231.814 381.364 231.89 380.97 232.044C380.575 232.198 380.234 232.419 379.945 232.708C379.659 232.997 379.434 233.339 379.276 233.734C379.116 234.127 379.037 234.567 379.037 235.048C379.037 235.529 379.116 235.966 379.276 236.361C379.434 236.756 379.659 237.097 379.945 237.386C380.234 237.675 380.575 237.896 380.97 238.05C381.364 238.204 381.796 238.281 382.267 238.281C382.767 238.281 383.229 238.182 383.652 237.984C384.076 237.787 384.461 237.488 384.806 237.082L386.307 238.468C385.824 239.056 385.232 239.503 384.525 239.81C383.819 240.119 383.022 240.273 382.138 240.273Z" fill="#333333"/>
<path d="M131.247 293.031C131.9 293.031 132.519 292.874 133.101 292.562C133.3 292.448 133.485 292.388 133.655 292.381C133.826 292.373 133.975 292.448 134.102 292.605C134.23 292.762 134.294 292.942 134.294 293.149C134.294 293.354 134.159 293.543 133.89 293.713C133.065 294.254 132.142 294.524 131.12 294.524C129.827 294.524 128.733 294.119 127.838 293.309C126.901 292.441 126.439 291.303 126.452 289.895C126.452 288.488 126.915 287.351 127.838 286.484C128.719 285.658 129.813 285.252 131.12 285.268C131.815 285.268 132.388 285.357 132.835 285.534C133.282 285.712 133.637 285.889 133.901 286.067C134.162 286.245 134.294 286.441 134.294 286.654C134.294 286.866 134.23 287.045 134.102 287.186C133.975 287.329 133.847 287.4 133.718 287.4C133.52 287.4 133.314 287.343 133.101 287.229C132.505 286.903 131.888 286.747 131.247 286.76C130.224 286.76 129.432 287.048 128.871 287.624C128.309 288.199 128.03 288.957 128.03 289.895C128.03 290.834 128.309 291.59 128.871 292.167C129.432 292.743 130.224 293.031 131.247 293.031Z" fill="#333333"/>
<path d="M142.871 292.359C143.149 292.608 143.46 292.79 143.809 292.903C144.156 293.017 144.494 293.074 144.821 293.074C145.147 293.074 145.481 293.017 145.822 292.903C146.163 292.79 146.475 292.605 146.759 292.348C147.384 291.78 147.697 290.956 147.697 289.875C147.697 288.822 147.384 288.004 146.759 287.422C146.234 286.939 145.587 286.704 144.821 286.717C143.556 286.717 142.682 287.286 142.199 288.424C142.029 288.836 141.943 289.328 141.943 289.895C141.943 290.465 142.029 290.956 142.199 291.368C142.37 291.78 142.594 292.11 142.871 292.359ZM144.821 285.268C146.169 285.268 147.257 285.694 148.081 286.547C148.905 287.415 149.302 288.531 149.273 289.895C149.273 291.275 148.877 292.391 148.081 293.245C147.257 294.098 146.169 294.524 144.821 294.524C143.457 294.524 142.378 294.098 141.582 293.245C140.757 292.391 140.346 291.275 140.346 289.895C140.346 288.502 140.757 287.386 141.582 286.547C142.378 285.694 143.457 285.268 144.821 285.268Z" fill="#333333"/>
<path d="M158.862 293.053C160.156 293.053 160.794 292.647 160.78 291.837C160.78 291.58 160.653 291.382 160.396 291.239C160.142 291.098 159.822 290.976 159.438 290.876C159.055 290.778 158.635 290.672 158.18 290.556C157.725 290.444 157.299 290.287 156.903 290.088C156.503 289.889 156.177 289.629 155.922 289.31C155.666 288.988 155.537 288.595 155.537 288.126C155.537 287.657 155.609 287.256 155.752 286.921C155.894 286.586 156.107 286.298 156.392 286.057C157.001 285.531 157.853 285.268 158.949 285.268C159.829 285.268 160.674 285.41 161.484 285.694C161.64 285.751 161.764 285.848 161.857 285.982C161.949 286.117 161.995 286.26 161.995 286.409C161.995 286.558 161.927 286.704 161.792 286.846C161.658 286.989 161.525 287.059 161.397 287.059C161.271 287.059 161.114 287.032 160.93 286.973C160.375 286.804 159.764 286.718 159.097 286.718C158.429 286.718 157.926 286.832 157.583 287.059C157.244 287.287 157.071 287.568 157.071 287.902C157.071 288.237 157.2 288.478 157.456 288.627C157.712 288.776 158.034 288.908 158.426 289.021C158.816 289.136 159.243 289.242 159.704 289.34C160.166 289.44 160.589 289.591 160.972 289.789C161.881 290.258 162.336 290.976 162.336 291.943C162.336 292.698 162.052 293.302 161.484 293.757C160.886 294.269 160.042 294.524 158.949 294.524C157.783 294.524 156.732 294.261 155.794 293.736C155.596 293.594 155.493 293.419 155.485 293.213C155.477 293.007 155.541 292.828 155.677 292.679C155.812 292.53 155.95 292.455 156.092 292.455C156.235 292.455 156.419 292.506 156.646 292.604C157.314 292.904 158.052 293.053 158.862 293.053Z" fill="#333333"/>
<path d="M170.497 286.889C171.207 285.822 172.194 285.282 173.46 285.267C174.083 285.267 174.659 285.452 175.184 285.822C175.611 286.12 175.93 286.534 176.145 287.06C176.47 286.548 176.791 286.193 177.103 285.993C177.757 285.51 178.501 285.267 179.34 285.267C180.277 285.267 181.016 285.63 181.556 286.355C182.025 286.967 182.26 287.721 182.26 288.617V293.65C182.26 293.863 182.185 294.048 182.035 294.205C181.887 294.36 181.698 294.44 181.472 294.44C181.259 294.44 181.072 294.36 180.918 294.205C180.761 294.048 180.683 293.863 180.683 293.65V288.937C180.683 288.197 180.55 287.645 180.288 287.282C180.025 286.921 179.568 286.74 178.914 286.74C177.891 286.74 177.045 287.301 176.377 288.425V293.65C176.377 293.863 176.304 294.048 176.155 294.205C176.004 294.36 175.818 294.44 175.59 294.44C175.376 294.44 175.192 294.36 175.035 294.205C174.88 294.048 174.802 293.863 174.802 293.65V288.937C174.802 288.197 174.67 287.645 174.408 287.282C174.145 286.921 173.686 286.74 173.032 286.74C172.01 286.74 171.165 287.301 170.497 288.425V293.65C170.497 293.863 170.419 294.048 170.262 294.205C170.107 294.36 169.921 294.44 169.708 294.44C169.496 294.44 169.312 294.36 169.155 294.205C168.999 294.048 168.92 293.863 168.92 293.65V286.163C168.92 285.95 168.994 285.762 169.144 285.598C169.294 285.435 169.48 285.353 169.708 285.353C169.921 285.353 170.107 285.432 170.262 285.587C170.419 285.744 170.497 285.936 170.497 286.163V286.889Z" fill="#333333"/>
<path d="M193.127 286.611C192.09 286.611 191.336 287.074 190.867 287.997C190.696 288.325 190.59 288.715 190.548 289.17H195.705C195.662 288.346 195.357 287.692 194.788 287.209C194.334 286.811 193.779 286.611 193.127 286.611ZM191.454 292.339C191.958 292.8 192.653 293.03 193.543 293.03C194.431 293.03 195.186 292.889 195.81 292.605C196.009 292.505 196.187 292.452 196.344 292.445C196.5 292.437 196.647 292.499 196.78 292.626C196.915 292.754 196.983 292.895 196.983 293.052C196.983 293.366 196.859 293.585 196.611 293.715C196.361 293.842 196.138 293.956 195.94 294.054C195.74 294.154 195.527 294.24 195.299 294.311C194.774 294.452 194.163 294.523 193.468 294.523C192.032 294.523 190.921 294.122 190.133 293.319C189.344 292.516 188.95 291.375 188.95 289.896C188.95 288.615 189.284 287.549 189.952 286.697C190.704 285.744 191.763 285.267 193.127 285.267C194.433 285.267 195.463 285.709 196.216 286.589C196.925 287.415 197.283 288.445 197.283 289.682C197.283 289.896 197.207 290.081 197.058 290.237C196.909 290.393 196.72 290.471 196.492 290.471H190.548C190.648 291.253 190.95 291.876 191.454 292.339Z" fill="#333333"/>
<path d="M207.19 293.116C207.503 293.116 207.727 293.092 207.862 293.041C207.996 292.992 208.143 292.967 208.299 292.967C208.455 292.967 208.598 293.027 208.724 293.149C208.853 293.27 208.917 293.447 208.917 293.682C208.917 293.916 208.803 294.083 208.576 294.183C208.078 294.409 207.653 294.524 207.296 294.524C206.941 294.524 206.618 294.506 206.327 294.47C206.037 294.435 205.756 294.338 205.485 294.183C204.847 293.813 204.527 293.159 204.527 292.22V286.803H203.291C203.078 286.803 202.964 286.689 202.95 286.461C202.95 286.361 203.007 286.269 203.121 286.185L205.485 283.86C205.586 283.76 205.686 283.707 205.784 283.699C205.884 283.693 205.962 283.725 206.019 283.796C206.075 283.867 206.103 283.953 206.103 284.051V285.438H208.086C208.284 285.438 208.448 285.502 208.576 285.63C208.704 285.757 208.768 285.922 208.768 286.12C208.768 286.32 208.704 286.483 208.576 286.611C208.448 286.74 208.284 286.803 208.086 286.803H206.103V292.092C206.103 292.534 206.239 292.832 206.508 292.989C206.65 293.073 206.877 293.116 207.19 293.116Z" fill="#333333"/>
<path d="M217.151 292.359C217.429 292.608 217.741 292.79 218.089 292.903C218.437 293.017 218.774 293.074 219.101 293.074C219.427 293.074 219.761 293.017 220.102 292.903C220.443 292.79 220.755 292.605 221.04 292.348C221.664 291.78 221.977 290.956 221.977 289.875C221.977 288.822 221.664 288.004 221.04 287.422C220.515 286.939 219.867 286.704 219.101 286.717C217.835 286.717 216.962 287.286 216.48 288.424C216.309 288.836 216.223 289.328 216.223 289.895C216.223 290.465 216.309 290.956 216.48 291.368C216.65 291.78 216.875 292.11 217.151 292.359ZM219.101 285.268C220.45 285.268 221.537 285.694 222.362 286.547C223.185 287.415 223.583 288.531 223.553 289.895C223.553 291.275 223.157 292.391 222.362 293.245C221.537 294.098 220.45 294.524 219.101 294.524C217.738 294.524 216.658 294.098 215.862 293.245C215.038 292.391 214.626 291.275 214.626 289.895C214.626 288.502 215.038 287.386 215.862 286.547C216.658 285.694 217.738 285.268 219.101 285.268Z" fill="#333333"/>
<path d="M230.672 281.737C230.829 281.588 231.021 281.513 231.248 281.513C231.474 281.513 231.663 281.588 231.811 281.737C231.961 281.886 232.036 282.076 232.036 282.303V293.649C232.036 293.863 231.961 294.048 231.811 294.205C231.663 294.36 231.474 294.44 231.248 294.44C231.021 294.44 230.829 294.36 230.672 294.205C230.516 294.048 230.438 293.863 230.438 293.649V282.303C230.438 282.076 230.516 281.886 230.672 281.737Z" fill="#333333"/>
<path d="M241.422 292.359C241.699 292.608 242.012 292.79 242.361 292.903C242.707 293.017 243.045 293.074 243.372 293.074C243.698 293.074 244.033 293.017 244.374 292.903C244.715 292.79 245.026 292.605 245.31 292.348C245.936 291.78 246.249 290.956 246.249 289.875C246.249 288.822 245.936 288.004 245.31 287.422C244.785 286.939 244.139 286.704 243.372 286.717C242.107 286.717 241.233 287.286 240.75 288.424C240.58 288.836 240.495 289.328 240.495 289.895C240.495 290.465 240.58 290.956 240.75 291.368C240.921 291.78 241.145 292.11 241.422 292.359ZM243.372 285.268C244.721 285.268 245.808 285.694 246.633 286.547C247.456 287.415 247.854 288.531 247.825 289.895C247.825 291.275 247.429 292.391 246.633 293.245C245.808 294.098 244.721 294.524 243.372 294.524C242.008 294.524 240.929 294.098 240.133 293.245C239.308 292.391 238.897 291.275 238.897 289.895C238.897 288.502 239.308 287.386 240.133 286.547C240.929 285.694 242.008 285.268 243.372 285.268Z" fill="#333333"/>
<path d="M261.248 287.997C260.921 287.656 260.549 287.358 260.128 287.101C259.71 286.846 259.245 286.717 258.734 286.717C258.222 286.717 257.786 286.781 257.424 286.909C257.06 287.037 256.744 287.229 256.476 287.485C255.906 288.027 255.623 288.801 255.623 289.81C255.623 291.318 256.219 292.285 257.412 292.711C257.781 292.838 258.222 292.903 258.734 292.903C259.586 292.903 260.424 292.469 261.248 291.602V287.997ZM261.248 286.589V286.163C261.248 285.95 261.323 285.761 261.471 285.598C261.621 285.435 261.802 285.353 262.015 285.353C262.229 285.353 262.416 285.432 262.58 285.587C262.743 285.744 262.825 285.936 262.825 286.163V293.97C262.825 295.448 262.47 296.581 261.759 297.372C261.05 298.161 260.041 298.555 258.734 298.555C257.341 298.555 256.092 298.249 254.983 297.638C254.784 297.51 254.685 297.332 254.685 297.106C254.685 296.877 254.753 296.689 254.886 296.54C255.021 296.391 255.162 296.315 255.302 296.315C255.445 296.315 255.573 296.337 255.687 296.38C256.567 296.82 257.526 297.041 258.563 297.041C260.354 297.041 261.248 296.096 261.248 294.205V293.03C260.424 293.913 259.429 294.354 258.265 294.354C257.157 294.354 256.205 293.977 255.408 293.222C254.487 292.369 254.025 291.232 254.025 289.81C254.025 288.374 254.487 287.229 255.408 286.377C256.205 285.624 257.172 285.249 258.309 285.256C259.443 285.264 260.424 285.708 261.248 286.589Z" fill="#333333"/>
<path d="M277.39 285.587C277.539 285.744 277.614 285.907 277.614 286.077C277.614 286.248 277.593 286.377 277.549 286.462L272.798 297.916C272.655 298.285 272.414 298.469 272.073 298.469C271.873 298.469 271.7 298.392 271.55 298.235C271.402 298.078 271.328 297.926 271.328 297.777C271.328 297.628 271.342 297.502 271.369 297.404L272.498 294.481L269.218 286.483C269.175 286.369 269.153 286.231 269.153 286.067C269.153 285.904 269.228 285.744 269.378 285.587C269.527 285.43 269.692 285.353 269.877 285.353C270.26 285.353 270.523 285.516 270.666 285.844L273.351 292.518L276.1 285.865C276.243 285.509 276.484 285.338 276.825 285.353C277.051 285.353 277.239 285.43 277.39 285.587Z" fill="#333333"/>
<path d="M296.194 288.552C295.553 288.965 295.114 289.497 294.874 290.152C294.787 290.407 294.749 290.692 294.755 291.005C294.761 291.317 294.833 291.609 294.968 291.88C295.104 292.149 295.291 292.384 295.532 292.584C296.016 292.996 296.592 293.197 297.258 293.191C297.926 293.184 298.476 293.084 298.911 292.893C299.344 292.701 299.731 292.469 300.072 292.2L296.194 288.552ZM301.116 293.159C300.066 294.069 298.87 294.524 297.537 294.524C296.1 294.524 295 294.14 294.234 293.373C293.58 292.718 293.253 291.9 293.253 290.919C293.253 290.123 293.494 289.397 293.977 288.744C294.346 288.246 294.758 287.855 295.212 287.571C294.901 287.201 294.649 286.824 294.457 286.44C294.265 286.055 294.17 285.623 294.17 285.139C294.17 284.656 294.244 284.229 294.392 283.86C294.543 283.49 294.758 283.164 295.044 282.878C295.64 282.281 296.435 281.983 297.431 281.983C298.21 281.983 298.984 282.238 299.75 282.75C299.951 282.864 300.054 283.021 300.061 283.219C300.067 283.419 300.015 283.582 299.901 283.711C299.787 283.839 299.661 283.902 299.518 283.902C299.375 283.902 299.219 283.845 299.049 283.731C298.551 283.46 298.092 283.33 297.675 283.336C297.256 283.344 296.93 283.394 296.695 283.487C296.46 283.579 296.265 283.703 296.108 283.86C295.795 284.172 295.64 284.5 295.64 284.841C295.64 285.182 295.667 285.451 295.724 285.651C295.781 285.851 295.888 286.049 296.044 286.248C296.243 286.561 296.684 287.03 297.366 287.656L301.011 291.111C301.209 290.798 301.371 290.51 301.499 290.247C301.628 289.985 301.752 289.809 301.872 289.725C301.992 289.64 302.145 289.597 302.331 289.597C302.515 289.597 302.675 289.665 302.81 289.8C302.946 289.935 303.011 290.081 303.011 290.237C303.011 290.607 302.706 291.225 302.096 292.092L303.246 293.202C303.43 293.357 303.526 293.54 303.533 293.745C303.541 293.952 303.481 294.126 303.353 294.267C303.224 294.41 303.052 294.481 302.83 294.481C302.61 294.481 302.431 294.416 302.288 294.289L301.116 293.159Z" fill="#333333"/>
<path d="M321.743 286.889C322.452 285.822 323.44 285.282 324.705 285.267C325.329 285.267 325.905 285.452 326.432 285.822C326.857 286.12 327.177 286.534 327.39 287.06C327.717 286.548 328.036 286.193 328.348 285.993C329.003 285.51 329.748 285.267 330.586 285.267C331.523 285.267 332.264 285.63 332.803 286.355C333.27 286.967 333.505 287.721 333.505 288.617V293.65C333.505 293.863 333.43 294.048 333.282 294.205C333.132 294.36 332.943 294.44 332.717 294.44C332.504 294.44 332.32 294.36 332.162 294.205C332.007 294.048 331.928 293.863 331.928 293.65V288.937C331.928 288.197 331.798 287.645 331.533 287.282C331.271 286.921 330.813 286.74 330.159 286.74C329.136 286.74 328.292 287.301 327.624 288.425V293.65C327.624 293.863 327.548 294.048 327.4 294.205C327.252 294.36 327.063 294.44 326.836 294.44C326.622 294.44 326.438 294.36 326.281 294.205C326.127 294.048 326.048 293.863 326.048 293.65V288.937C326.048 288.197 325.916 287.645 325.653 287.282C325.391 286.921 324.931 286.74 324.279 286.74C323.256 286.74 322.411 287.301 321.743 288.425V293.65C321.743 293.863 321.664 294.048 321.51 294.205C321.351 294.36 321.167 294.44 320.954 294.44C320.742 294.44 320.557 294.36 320.401 294.205C320.243 294.048 320.167 293.863 320.167 293.65V286.163C320.167 285.95 320.24 285.762 320.39 285.598C320.539 285.435 320.728 285.353 320.954 285.353C321.167 285.353 321.351 285.432 321.51 285.587C321.664 285.744 321.743 285.936 321.743 286.163V286.889Z" fill="#333333"/>
<path d="M342.699 292.359C342.975 292.608 343.289 292.79 343.636 292.903C343.984 293.017 344.323 293.074 344.65 293.074C344.975 293.074 345.309 293.017 345.651 292.903C345.992 292.79 346.304 292.605 346.587 292.348C347.212 291.78 347.526 290.956 347.526 289.875C347.526 288.822 347.212 288.004 346.587 287.422C346.061 286.939 345.416 286.704 344.65 286.717C343.384 286.717 342.51 287.286 342.028 288.424C341.858 288.836 341.772 289.328 341.772 289.895C341.772 290.465 341.858 290.956 342.028 291.368C342.199 291.78 342.421 292.11 342.699 292.359ZM344.65 285.268C345.996 285.268 347.084 285.694 347.91 286.547C348.733 287.415 349.129 288.531 349.102 289.895C349.102 291.275 348.704 292.391 347.91 293.245C347.084 294.098 345.996 294.524 344.65 294.524C343.284 294.524 342.206 294.098 341.409 293.245C340.586 292.391 340.173 291.275 340.173 289.895C340.173 288.502 340.586 287.386 341.409 286.547C342.206 285.694 343.284 285.268 344.65 285.268Z" fill="#333333"/>
<path d="M357.433 286.91C358.257 285.815 359.174 285.268 360.183 285.268H360.268C360.48 285.268 360.662 285.342 360.81 285.491C360.959 285.64 361.035 285.829 361.035 286.056C361.035 286.284 360.957 286.465 360.8 286.601C360.643 286.736 360.452 286.804 360.224 286.804H360.139C359.557 286.804 359.038 286.945 358.584 287.229C358.129 287.514 357.745 287.884 357.433 288.339V293.649C357.433 293.863 357.355 294.049 357.199 294.204C357.042 294.361 356.857 294.439 356.644 294.439C356.432 294.439 356.248 294.361 356.091 294.204C355.932 294.049 355.857 293.863 355.857 293.649V286.163C355.857 285.949 355.93 285.761 356.08 285.597C356.229 285.435 356.418 285.352 356.644 285.352C356.857 285.352 357.042 285.431 357.199 285.588C357.355 285.744 357.433 285.937 357.433 286.163V286.91Z" fill="#333333"/>
<path d="M370.773 286.611C369.736 286.611 368.983 287.074 368.513 287.997C368.343 288.325 368.237 288.715 368.194 289.17H373.351C373.308 288.346 373.003 287.692 372.434 287.209C371.98 286.811 371.427 286.611 370.773 286.611ZM369.1 292.339C369.604 292.8 370.299 293.03 371.189 293.03C372.077 293.03 372.832 292.889 373.457 292.605C373.657 292.505 373.833 292.452 373.99 292.445C374.147 292.437 374.293 292.499 374.428 292.626C374.562 292.754 374.63 292.895 374.63 293.052C374.63 293.366 374.506 293.585 374.257 293.715C374.007 293.842 373.784 293.956 373.585 294.054C373.386 294.154 373.173 294.24 372.945 294.311C372.42 294.452 371.81 294.523 371.114 294.523C369.679 294.523 368.567 294.122 367.779 293.319C366.99 292.516 366.595 291.375 366.595 289.896C366.595 288.615 366.93 287.549 367.598 286.697C368.351 285.744 369.409 285.267 370.773 285.267C372.079 285.267 373.109 285.709 373.862 286.589C374.574 287.415 374.929 288.445 374.929 289.682C374.929 289.896 374.853 290.081 374.704 290.237C374.555 290.393 374.367 290.471 374.139 290.471H368.194C368.294 291.253 368.595 291.876 369.1 292.339Z" fill="#333333"/>
</g>
</g>
</svg>
