<svg width="32" height="32" viewBox="0 0 32 32" fill="none" xmlns="http://www.w3.org/2000/svg">
<mask id="mask0_173_1702" style="mask-type:alpha" maskUnits="userSpaceOnUse" x="0" y="0" width="32" height="32">
<rect width="32" height="32" fill="#D9D9D9"/>
</mask>
<g mask="url(#mask0_173_1702)">
<path d="M16 28C13.7812 28 11.8932 27.2213 10.3359 25.6641C8.77863 24.1068 8 22.2188 8 20V12.1025C8 9.88374 8.77863 7.9957 10.3359 6.43844C11.8932 4.88117 13.7812 4.10254 16 4.10254C18.2188 4.10254 20.1068 4.88117 21.6641 6.43844C23.2214 7.9957 24 9.88374 24 12.1025V20C24 22.2188 23.2214 24.1068 21.6641 25.6641C20.1068 27.2213 18.2188 28 16 28ZM16.6667 12.1025H22.6667C22.6667 10.3487 22.0842 8.84356 20.9192 7.58714C19.7543 6.33074 18.3368 5.6239 16.6667 5.46664V12.1025ZM9.33333 12.1025H15.3333V5.46664C13.6632 5.6239 12.2457 6.33074 11.0808 7.58714C9.91581 8.84356 9.33333 10.3487 9.33333 12.1025ZM16 26.6666C17.8444 26.6666 19.4167 26.0166 20.7167 24.7166C22.0167 23.4166 22.6667 21.8444 22.6667 20V13.4359H9.33333V20C9.33333 21.8444 9.98333 23.4166 11.2833 24.7166C12.5833 26.0166 14.1556 26.6666 16 26.6666Z" fill="#FFFAEE"/>
</g>
</svg>
