<svg width="500" height="500" viewBox="0 0 500 500" fill="none" xmlns="http://www.w3.org/2000/svg">
<rect width="500" height="500" fill="#FFFFC6"/>
<path d="M155.141 235.759H138.969V222.154H129.221V259.465H138.969V244.828H155.141V259.465H164.89V222.154H155.141V235.759Z" fill="#F9B577" fill-opacity="0.59"/>
<path d="M181.849 244.312H201.749V235.817H181.849V230.65H202.78V222.155H172.1V259.466H202.895V250.971H181.849V244.312Z" fill="#F9B577" fill-opacity="0.59"/>
<mask id="mask0_491_149" style="mask-type:luminance" maskUnits="userSpaceOnUse" x="117" y="208" width="266" height="84">
<path d="M117.774 208.706H382.225V291.294H117.774V208.706Z" fill="white"/>
</mask>
<g mask="url(#mask0_491_149)">
<path d="M231.405 237.481H219.936V231.224H231.405C233.585 231.224 235.018 232.372 235.018 234.324C235.018 236.333 233.585 237.481 231.405 237.481ZM237.14 244.598C241.728 242.934 244.767 239.03 244.767 233.807C244.767 226.632 239.09 222.155 231.405 222.155H210.187V259.466H219.936V246.55H226.589L235.535 259.466H246.258V257.342L237.14 244.943V244.598Z" fill="#F9B577" fill-opacity="0.59"/>
<path d="M348.972 250.97V222.154H339.223V259.465H367.724V250.97H348.972Z" fill="#F9B577" fill-opacity="0.59"/>
<path d="M296.645 231.224H331.925V222.155H296.645V231.224Z" fill="#F9B577" fill-opacity="0.59"/>
<path d="M296.645 259.465H331.925V250.396H296.645V259.465Z" fill="#F9B577" fill-opacity="0.59"/>
<path d="M279.196 235.759H263.025V222.154H253.276V259.465H263.025V244.828H279.196V259.465H288.945V222.154H279.196V235.759Z" fill="#F9B577" fill-opacity="0.59"/>
<path d="M299.991 244.045C299.514 244.045 299.071 243.967 298.662 243.81C298.253 243.654 297.898 243.432 297.599 243.143C297.299 242.854 297.065 242.515 296.896 242.127C296.728 241.738 296.645 241.311 296.645 240.846C296.645 240.38 296.728 239.953 296.896 239.564C297.065 239.175 297.3 238.835 297.602 238.547C297.906 238.258 298.261 238.036 298.667 237.88C299.073 237.724 299.518 237.646 300 237.646C300.536 237.646 301.02 237.738 301.453 237.924C301.886 238.11 302.248 238.382 302.544 238.741L301.625 239.59C301.413 239.348 301.178 239.168 300.918 239.046C300.659 238.926 300.376 238.866 300.07 238.866C299.782 238.866 299.518 238.913 299.276 239.007C299.034 239.101 298.826 239.236 298.649 239.413C298.473 239.59 298.336 239.799 298.239 240.041C298.141 240.282 298.092 240.551 298.092 240.846C298.092 241.14 298.141 241.408 298.239 241.65C298.336 241.891 298.473 242.1 298.649 242.277C298.826 242.454 299.034 242.59 299.276 242.684C299.518 242.778 299.782 242.825 300.07 242.825C300.376 242.825 300.659 242.765 300.918 242.643C301.178 242.523 301.413 242.339 301.625 242.091L302.544 242.94C302.248 243.299 301.886 243.573 301.453 243.762C301.02 243.951 300.532 244.045 299.991 244.045Z" fill="#F9B577" fill-opacity="0.59"/>
<path d="M304.388 243.939V237.751H305.818V242.772H308.917V243.939H304.388Z" fill="#F9B577" fill-opacity="0.59"/>
<path d="M310.604 237.751H312.035V243.939H310.604V237.751Z" fill="#F9B577" fill-opacity="0.59"/>
<path d="M314.384 243.939V237.751H315.568L319.214 242.206H318.64V237.751H320.053V243.939H318.878L315.224 239.484H315.797V243.939H314.384Z" fill="#F9B577" fill-opacity="0.59"/>
<path d="M322.401 237.751H323.831V243.939H322.401V237.751Z" fill="#F9B577" fill-opacity="0.59"/>
<path d="M329.138 244.045C328.661 244.045 328.218 243.967 327.809 243.81C327.4 243.654 327.045 243.432 326.746 243.143C326.446 242.854 326.212 242.515 326.043 242.127C325.875 241.738 325.792 241.311 325.792 240.846C325.792 240.38 325.875 239.953 326.043 239.564C326.212 239.175 326.447 238.835 326.749 238.547C327.053 238.258 327.408 238.036 327.814 237.88C328.22 237.724 328.664 237.646 329.147 237.646C329.683 237.646 330.167 237.738 330.6 237.924C331.033 238.11 331.395 238.382 331.691 238.741L330.772 239.59C330.56 239.348 330.325 239.168 330.065 239.046C329.806 238.926 329.523 238.866 329.217 238.866C328.929 238.866 328.664 238.913 328.423 239.007C328.181 239.101 327.973 239.236 327.796 239.413C327.62 239.59 327.483 239.799 327.386 240.041C327.288 240.282 327.239 240.551 327.239 240.846C327.239 241.14 327.288 241.408 327.386 241.65C327.483 241.891 327.62 242.1 327.796 242.277C327.973 242.454 328.181 242.59 328.423 242.684C328.664 242.778 328.929 242.825 329.217 242.825C329.523 242.825 329.806 242.765 330.065 242.643C330.325 242.523 330.56 242.339 330.772 242.091L331.691 242.94C331.395 243.299 331.033 243.573 330.6 243.762C330.167 243.951 329.679 244.045 329.138 244.045Z" fill="#F9B577" fill-opacity="0.59"/>
<path d="M175.531 276.345C175.931 276.345 176.31 276.249 176.666 276.058C176.789 275.989 176.901 275.952 177.006 275.947C177.11 275.943 177.201 275.989 177.279 276.085C177.357 276.181 177.397 276.291 177.397 276.418C177.397 276.543 177.314 276.659 177.15 276.763C176.645 277.095 176.08 277.259 175.453 277.259C174.662 277.259 173.992 277.012 173.444 276.516C172.87 275.984 172.587 275.288 172.596 274.425C172.596 273.564 172.879 272.868 173.444 272.337C173.984 271.832 174.653 271.583 175.453 271.593C175.879 271.593 176.23 271.647 176.504 271.755C176.777 271.865 176.994 271.973 177.156 272.082C177.316 272.191 177.397 272.311 177.397 272.441C177.397 272.571 177.357 272.681 177.279 272.767C177.201 272.855 177.123 272.898 177.044 272.898C176.923 272.898 176.797 272.863 176.666 272.793C176.302 272.594 175.924 272.498 175.531 272.506C174.905 272.506 174.42 272.682 174.077 273.035C173.733 273.387 173.562 273.851 173.562 274.425C173.562 275.001 173.733 275.464 174.077 275.817C174.42 276.169 174.905 276.345 175.531 276.345Z" fill="#F9B577" fill-opacity="0.59"/>
<path d="M182.648 275.934C182.818 276.087 183.009 276.198 183.222 276.267C183.435 276.337 183.642 276.372 183.842 276.372C184.041 276.372 184.246 276.337 184.455 276.267C184.664 276.198 184.855 276.085 185.029 275.928C185.411 275.579 185.603 275.075 185.603 274.413C185.603 273.768 185.411 273.268 185.029 272.911C184.707 272.616 184.311 272.472 183.842 272.48C183.067 272.48 182.532 272.828 182.237 273.525C182.133 273.777 182.08 274.078 182.08 274.425C182.08 274.775 182.133 275.075 182.237 275.327C182.341 275.579 182.479 275.782 182.648 275.934ZM183.842 271.593C184.668 271.593 185.333 271.853 185.838 272.376C186.342 272.907 186.586 273.591 186.568 274.425C186.568 275.271 186.325 275.954 185.838 276.476C185.333 276.999 184.668 277.259 183.842 277.259C183.007 277.259 182.346 276.999 181.859 276.476C181.354 275.954 181.102 275.271 181.102 274.425C181.102 273.573 181.354 272.889 181.859 272.376C182.346 271.853 183.007 271.593 183.842 271.593Z" fill="#F9B577" fill-opacity="0.59"/>
<path d="M192.439 276.359C193.231 276.359 193.621 276.11 193.613 275.614C193.613 275.457 193.535 275.336 193.378 275.248C193.222 275.162 193.026 275.087 192.791 275.026C192.556 274.966 192.3 274.901 192.021 274.83C191.743 274.762 191.482 274.666 191.239 274.543C190.994 274.422 190.795 274.263 190.638 274.067C190.482 273.87 190.403 273.629 190.403 273.342C190.403 273.055 190.447 272.81 190.535 272.605C190.621 272.399 190.752 272.223 190.926 272.076C191.299 271.754 191.821 271.593 192.492 271.593C193.03 271.593 193.548 271.679 194.044 271.853C194.14 271.888 194.215 271.948 194.272 272.029C194.329 272.112 194.357 272.2 194.357 272.291C194.357 272.382 194.315 272.472 194.233 272.558C194.15 272.646 194.069 272.689 193.991 272.689C193.913 272.689 193.817 272.672 193.705 272.636C193.365 272.533 192.991 272.48 192.583 272.48C192.174 272.48 191.865 272.55 191.655 272.689C191.448 272.828 191.342 273.001 191.342 273.205C191.342 273.41 191.421 273.558 191.578 273.649C191.734 273.74 191.932 273.821 192.171 273.89C192.41 273.961 192.672 274.026 192.954 274.086C193.237 274.147 193.496 274.239 193.731 274.361C194.287 274.648 194.566 275.087 194.566 275.679C194.566 276.141 194.391 276.511 194.044 276.79C193.678 277.103 193.161 277.26 192.492 277.26C191.778 277.26 191.135 277.099 190.56 276.777C190.439 276.69 190.376 276.583 190.371 276.457C190.366 276.331 190.406 276.221 190.489 276.13C190.571 276.039 190.656 275.993 190.743 275.993C190.83 275.993 190.943 276.024 191.082 276.084C191.491 276.268 191.943 276.359 192.439 276.359Z" fill="#F9B577" fill-opacity="0.59"/>
<path d="M199.562 272.585C199.997 271.932 200.601 271.601 201.376 271.592C201.757 271.592 202.11 271.705 202.432 271.932C202.693 272.114 202.889 272.368 203.02 272.689C203.219 272.376 203.415 272.159 203.606 272.036C204.007 271.741 204.463 271.592 204.976 271.592C205.55 271.592 206.002 271.814 206.333 272.258C206.62 272.633 206.764 273.094 206.764 273.643V276.724C206.764 276.855 206.718 276.968 206.626 277.064C206.535 277.159 206.419 277.208 206.281 277.208C206.151 277.208 206.037 277.159 205.942 277.064C205.846 276.968 205.798 276.855 205.798 276.724V273.839C205.798 273.386 205.717 273.048 205.556 272.826C205.396 272.605 205.116 272.494 204.715 272.494C204.089 272.494 203.571 272.837 203.162 273.525V276.724C203.162 276.855 203.117 276.968 203.026 277.064C202.934 277.159 202.819 277.208 202.68 277.208C202.549 277.208 202.437 277.159 202.341 277.064C202.245 276.968 202.197 276.855 202.197 276.724V273.839C202.197 273.386 202.117 273.048 201.956 272.826C201.795 272.605 201.514 272.494 201.114 272.494C200.488 272.494 199.971 272.837 199.562 273.525V276.724C199.562 276.855 199.514 276.968 199.418 277.064C199.323 277.159 199.209 277.208 199.079 277.208C198.949 277.208 198.836 277.159 198.741 277.064C198.645 276.968 198.597 276.855 198.597 276.724V272.141C198.597 272.01 198.642 271.895 198.733 271.794C198.825 271.695 198.939 271.645 199.079 271.645C199.209 271.645 199.323 271.693 199.418 271.788C199.514 271.884 199.562 272.001 199.562 272.141V272.585Z" fill="#F9B577" fill-opacity="0.59"/>
<path d="M213.417 272.415C212.782 272.415 212.32 272.698 212.033 273.264C211.929 273.464 211.864 273.703 211.838 273.982H214.995C214.969 273.477 214.782 273.077 214.434 272.781C214.156 272.537 213.816 272.415 213.417 272.415ZM212.393 275.922C212.701 276.204 213.127 276.345 213.672 276.345C214.215 276.345 214.678 276.259 215.06 276.085C215.181 276.023 215.291 275.991 215.387 275.987C215.482 275.982 215.572 276.02 215.654 276.098C215.736 276.176 215.778 276.262 215.778 276.358C215.778 276.55 215.702 276.685 215.55 276.764C215.397 276.842 215.26 276.912 215.139 276.972C215.017 277.033 214.887 277.086 214.747 277.129C214.425 277.216 214.052 277.259 213.626 277.259C212.747 277.259 212.066 277.013 211.584 276.522C211.101 276.03 210.86 275.332 210.86 274.426C210.86 273.642 211.064 272.989 211.473 272.468C211.934 271.884 212.582 271.592 213.417 271.592C214.217 271.592 214.847 271.862 215.308 272.402C215.743 272.907 215.961 273.538 215.961 274.295C215.961 274.426 215.915 274.539 215.824 274.635C215.733 274.73 215.617 274.778 215.478 274.778H211.838C211.899 275.257 212.084 275.638 212.393 275.922Z" fill="#F9B577" fill-opacity="0.59"/>
<path d="M222.027 276.398C222.219 276.398 222.356 276.383 222.438 276.352C222.521 276.321 222.61 276.306 222.706 276.306C222.801 276.306 222.889 276.343 222.966 276.417C223.045 276.492 223.084 276.6 223.084 276.744C223.084 276.887 223.014 276.99 222.875 277.051C222.571 277.189 222.311 277.26 222.092 277.26C221.875 277.26 221.677 277.249 221.499 277.227C221.321 277.205 221.149 277.146 220.983 277.051C220.593 276.824 220.397 276.424 220.397 275.849V272.532H219.64C219.509 272.532 219.44 272.463 219.431 272.323C219.431 272.262 219.466 272.206 219.536 272.154L220.983 270.731C221.045 270.67 221.106 270.637 221.166 270.632C221.227 270.628 221.275 270.648 221.31 270.691C221.344 270.735 221.361 270.787 221.361 270.848V271.697H222.576C222.697 271.697 222.797 271.736 222.875 271.814C222.954 271.892 222.993 271.993 222.993 272.114C222.993 272.237 222.954 272.336 222.875 272.415C222.797 272.494 222.697 272.532 222.576 272.532H221.361V275.771C221.361 276.041 221.445 276.224 221.61 276.32C221.696 276.371 221.835 276.398 222.027 276.398Z" fill="#F9B577" fill-opacity="0.59"/>
<path d="M228.126 275.934C228.296 276.087 228.487 276.198 228.7 276.267C228.913 276.337 229.12 276.372 229.32 276.372C229.519 276.372 229.724 276.337 229.933 276.267C230.141 276.198 230.332 276.085 230.507 275.928C230.889 275.579 231.081 275.075 231.081 274.413C231.081 273.768 230.889 273.268 230.507 272.911C230.185 272.616 229.789 272.472 229.32 272.48C228.545 272.48 228.01 272.828 227.715 273.525C227.61 273.777 227.557 274.078 227.557 274.425C227.557 274.775 227.61 275.075 227.715 275.327C227.819 275.579 227.957 275.782 228.126 275.934ZM229.32 271.593C230.146 271.593 230.811 271.853 231.316 272.376C231.82 272.907 232.064 273.591 232.045 274.425C232.045 275.271 231.803 275.954 231.316 276.476C230.811 276.999 230.146 277.259 229.32 277.259C228.485 277.259 227.824 276.999 227.337 276.476C226.832 275.954 226.58 275.271 226.58 274.425C226.58 273.573 226.832 272.889 227.337 272.376C227.824 271.853 228.485 271.593 229.32 271.593Z" fill="#F9B577" fill-opacity="0.59"/>
<path d="M236.404 269.431C236.5 269.34 236.618 269.294 236.757 269.294C236.895 269.294 237.01 269.34 237.101 269.431C237.193 269.522 237.239 269.638 237.239 269.777V276.724C237.239 276.855 237.193 276.968 237.101 277.064C237.01 277.159 236.895 277.208 236.757 277.208C236.618 277.208 236.5 277.159 236.404 277.064C236.308 276.968 236.261 276.855 236.261 276.724V269.777C236.261 269.638 236.308 269.522 236.404 269.431Z" fill="#F9B577" fill-opacity="0.59"/>
<path d="M242.985 275.934C243.155 276.087 243.346 276.198 243.56 276.267C243.772 276.337 243.979 276.372 244.179 276.372C244.379 276.372 244.584 276.337 244.793 276.267C245.001 276.198 245.192 276.085 245.366 275.928C245.749 275.579 245.941 275.075 245.941 274.413C245.941 273.768 245.749 273.268 245.366 272.911C245.044 272.616 244.649 272.472 244.179 272.48C243.405 272.48 242.87 272.828 242.574 273.525C242.47 273.777 242.418 274.078 242.418 274.425C242.418 274.775 242.47 275.075 242.574 275.327C242.678 275.579 242.816 275.782 242.985 275.934ZM244.179 271.593C245.005 271.593 245.671 271.853 246.176 272.376C246.68 272.907 246.923 273.591 246.905 274.425C246.905 275.271 246.663 275.954 246.176 276.476C245.671 276.999 245.005 277.259 244.179 277.259C243.344 277.259 242.683 276.999 242.196 276.476C241.691 275.954 241.439 275.271 241.439 274.425C241.439 273.573 241.691 272.889 242.196 272.376C242.683 271.853 243.344 271.593 244.179 271.593Z" fill="#F9B577" fill-opacity="0.59"/>
<path d="M255.124 273.264C254.924 273.055 254.696 272.872 254.439 272.715C254.183 272.559 253.898 272.48 253.585 272.48C253.271 272.48 253.004 272.519 252.783 272.597C252.56 272.675 252.367 272.793 252.202 272.95C251.853 273.282 251.68 273.756 251.68 274.373C251.68 275.297 252.045 275.889 252.776 276.149C253.001 276.227 253.271 276.267 253.585 276.267C254.106 276.267 254.62 276.002 255.124 275.471V273.264ZM255.124 272.402V272.141C255.124 272.01 255.17 271.894 255.261 271.794C255.352 271.695 255.463 271.645 255.594 271.645C255.725 271.645 255.839 271.693 255.939 271.788C256.039 271.884 256.089 272.002 256.089 272.141V276.92C256.089 277.826 255.872 278.519 255.437 279.003C255.003 279.486 254.385 279.727 253.585 279.727C252.732 279.727 251.967 279.54 251.288 279.166C251.166 279.088 251.106 278.978 251.106 278.84C251.106 278.7 251.147 278.585 251.229 278.494C251.312 278.402 251.398 278.356 251.484 278.356C251.571 278.356 251.649 278.37 251.719 278.396C252.258 278.665 252.845 278.801 253.48 278.801C254.577 278.801 255.124 278.222 255.124 277.064V276.345C254.62 276.885 254.01 277.155 253.298 277.155C252.619 277.155 252.037 276.925 251.549 276.463C250.984 275.94 250.702 275.244 250.702 274.373C250.702 273.494 250.984 272.793 251.549 272.272C252.037 271.81 252.628 271.581 253.324 271.586C254.019 271.59 254.62 271.862 255.124 272.402Z" fill="#F9B577" fill-opacity="0.59"/>
<path d="M265.007 271.788C265.098 271.884 265.144 271.984 265.144 272.088C265.144 272.193 265.131 272.272 265.104 272.323L262.195 279.336C262.108 279.562 261.96 279.675 261.752 279.675C261.629 279.675 261.523 279.628 261.431 279.532C261.34 279.436 261.295 279.343 261.295 279.251C261.295 279.16 261.304 279.083 261.321 279.023L262.012 277.234L260.003 272.337C259.977 272.267 259.964 272.182 259.964 272.082C259.964 271.982 260.01 271.884 260.101 271.788C260.192 271.692 260.294 271.645 260.407 271.645C260.642 271.645 260.802 271.745 260.89 271.945L262.534 276.032L264.217 271.958C264.304 271.74 264.452 271.635 264.661 271.645C264.799 271.645 264.914 271.692 265.007 271.788Z" fill="#F9B577" fill-opacity="0.59"/>
<path d="M276.519 273.603C276.127 273.856 275.858 274.182 275.711 274.583C275.658 274.739 275.635 274.913 275.638 275.105C275.642 275.296 275.686 275.475 275.769 275.641C275.852 275.806 275.966 275.95 276.114 276.072C276.411 276.324 276.763 276.447 277.171 276.444C277.58 276.439 277.917 276.378 278.183 276.261C278.448 276.143 278.685 276.001 278.894 275.837L276.519 273.603ZM279.533 276.424C278.89 276.981 278.158 277.26 277.341 277.26C276.462 277.26 275.789 277.024 275.32 276.555C274.919 276.154 274.719 275.653 274.719 275.053C274.719 274.565 274.866 274.121 275.162 273.721C275.388 273.416 275.64 273.177 275.918 273.003C275.728 272.776 275.573 272.545 275.456 272.31C275.339 272.075 275.28 271.81 275.28 271.514C275.28 271.218 275.325 270.957 275.416 270.731C275.509 270.504 275.64 270.304 275.815 270.129C276.18 269.764 276.667 269.582 277.277 269.582C277.754 269.582 278.228 269.738 278.697 270.051C278.819 270.121 278.883 270.217 278.887 270.338C278.891 270.461 278.859 270.56 278.789 270.639C278.719 270.718 278.642 270.756 278.554 270.756C278.467 270.756 278.372 270.721 278.267 270.652C277.963 270.486 277.681 270.406 277.426 270.41C277.169 270.414 276.97 270.446 276.826 270.502C276.682 270.558 276.563 270.635 276.467 270.731C276.275 270.922 276.18 271.122 276.18 271.331C276.18 271.54 276.197 271.705 276.231 271.827C276.267 271.95 276.332 272.071 276.427 272.192C276.549 272.384 276.82 272.671 277.237 273.054L279.468 275.17C279.59 274.978 279.689 274.802 279.767 274.641C279.846 274.48 279.922 274.373 279.996 274.321C280.069 274.27 280.163 274.243 280.276 274.243C280.389 274.243 280.487 274.285 280.57 274.367C280.653 274.45 280.693 274.54 280.693 274.635C280.693 274.862 280.506 275.24 280.133 275.771L280.837 276.45C280.95 276.545 281.008 276.657 281.013 276.782C281.018 276.91 280.981 277.016 280.903 277.103C280.824 277.19 280.718 277.233 280.583 277.233C280.448 277.233 280.338 277.194 280.25 277.116L279.533 276.424Z" fill="#F9B577" fill-opacity="0.59"/>
<path d="M292.161 272.585C292.596 271.932 293.201 271.601 293.975 271.592C294.357 271.592 294.71 271.705 295.032 271.932C295.293 272.114 295.489 272.368 295.619 272.689C295.819 272.376 296.015 272.159 296.206 272.036C296.606 271.741 297.063 271.592 297.576 271.592C298.149 271.592 298.603 271.814 298.933 272.258C299.219 272.633 299.363 273.094 299.363 273.643V276.724C299.363 276.855 299.317 276.968 299.226 277.064C299.135 277.159 299.019 277.208 298.881 277.208C298.75 277.208 298.637 277.159 298.541 277.064C298.446 276.968 298.398 276.855 298.398 276.724V273.839C298.398 273.386 298.318 273.048 298.156 272.826C297.995 272.605 297.715 272.494 297.314 272.494C296.688 272.494 296.171 272.837 295.762 273.525V276.724C295.762 276.855 295.716 276.968 295.625 277.064C295.534 277.159 295.419 277.208 295.28 277.208C295.149 277.208 295.036 277.159 294.94 277.064C294.845 276.968 294.798 276.855 294.798 276.724V273.839C294.798 273.386 294.716 273.048 294.556 272.826C294.395 272.605 294.113 272.494 293.714 272.494C293.088 272.494 292.571 272.837 292.161 273.525V276.724C292.161 276.855 292.114 276.968 292.019 277.064C291.922 277.159 291.809 277.208 291.678 277.208C291.549 277.208 291.436 277.159 291.34 277.064C291.243 276.968 291.197 276.855 291.197 276.724V272.141C291.197 272.01 291.241 271.895 291.334 271.794C291.425 271.695 291.54 271.645 291.678 271.645C291.809 271.645 291.922 271.693 292.019 271.788C292.114 271.884 292.161 272.001 292.161 272.141V272.585Z" fill="#F9B577" fill-opacity="0.59"/>
<path d="M304.992 275.934C305.161 276.087 305.353 276.198 305.566 276.267C305.779 276.337 305.986 276.372 306.186 276.372C306.385 276.372 306.59 276.337 306.799 276.267C307.008 276.198 307.199 276.085 307.373 275.928C307.755 275.579 307.947 275.075 307.947 274.413C307.947 273.768 307.755 273.268 307.373 272.911C307.05 272.616 306.655 272.472 306.186 272.48C305.411 272.48 304.876 272.828 304.581 273.525C304.477 273.777 304.424 274.078 304.424 274.425C304.424 274.775 304.477 275.075 304.581 275.327C304.686 275.579 304.822 275.782 304.992 275.934ZM306.186 271.593C307.011 271.593 307.677 271.853 308.182 272.376C308.686 272.907 308.929 273.591 308.912 274.425C308.912 275.271 308.669 275.954 308.182 276.476C307.677 276.999 307.011 277.259 306.186 277.259C305.35 277.259 304.69 276.999 304.202 276.476C303.698 275.954 303.445 275.271 303.445 274.425C303.445 273.573 303.698 272.889 304.202 272.376C304.69 271.853 305.35 271.593 306.186 271.593Z" fill="#F9B577" fill-opacity="0.59"/>
<path d="M314.013 272.598C314.517 271.928 315.078 271.593 315.696 271.593H315.748C315.878 271.593 315.989 271.638 316.08 271.729C316.171 271.82 316.218 271.936 316.218 272.075C316.218 272.215 316.17 272.326 316.074 272.409C315.978 272.491 315.861 272.533 315.721 272.533H315.669C315.313 272.533 314.995 272.619 314.717 272.794C314.439 272.968 314.204 273.194 314.013 273.473V276.724C314.013 276.855 313.965 276.969 313.869 277.064C313.773 277.16 313.66 277.208 313.53 277.208C313.4 277.208 313.287 277.16 313.191 277.064C313.094 276.969 313.048 276.855 313.048 276.724V272.14C313.048 272.009 313.092 271.895 313.184 271.794C313.276 271.695 313.391 271.644 313.53 271.644C313.66 271.644 313.773 271.692 313.869 271.788C313.965 271.884 314.013 272.002 314.013 272.14V272.598Z" fill="#F9B577" fill-opacity="0.59"/>
<path d="M322.18 272.415C321.545 272.415 321.084 272.698 320.796 273.264C320.692 273.464 320.627 273.703 320.601 273.982H323.758C323.732 273.477 323.545 273.077 323.197 272.781C322.919 272.537 322.58 272.415 322.18 272.415ZM321.156 275.922C321.464 276.204 321.89 276.345 322.434 276.345C322.978 276.345 323.441 276.259 323.823 276.085C323.946 276.023 324.054 275.991 324.149 275.987C324.245 275.982 324.335 276.02 324.417 276.098C324.5 276.176 324.542 276.262 324.542 276.358C324.542 276.55 324.465 276.685 324.313 276.764C324.16 276.842 324.023 276.912 323.901 276.972C323.78 277.033 323.649 277.086 323.51 277.129C323.188 277.216 322.815 277.259 322.389 277.259C321.51 277.259 320.829 277.013 320.347 276.522C319.864 276.03 319.622 275.332 319.622 274.426C319.622 273.642 319.827 272.989 320.236 272.468C320.697 271.884 321.345 271.592 322.18 271.592C322.98 271.592 323.61 271.862 324.071 272.402C324.507 272.907 324.724 273.538 324.724 274.295C324.724 274.426 324.678 274.539 324.587 274.635C324.496 274.73 324.38 274.778 324.24 274.778H320.601C320.662 275.257 320.846 275.638 321.156 275.922Z" fill="#F9B577" fill-opacity="0.59"/>
</g>
</svg>
